<?xml version="1.0" encoding="us-ascii" standalone="no"?><svg xmlns="http://www.w3.org/2000/svg" xmlns:xlink="http://www.w3.org/1999/xlink" contentStyleType="text/css" height="1111px" preserveAspectRatio="none" style="width:883px;height:1111px;background:#FFFFFF;" version="1.1" viewBox="0 0 883 1111" width="883px" zoomAndPan="magnify"><defs/><g><rect fill="#FFFFFF" height="905.5156" style="stroke:#181818;stroke-width:1.0;" width="10" x="111.5" y="114.9609"/><rect fill="#FFFFFF" height="731.7578" style="stroke:#181818;stroke-width:1.0;" width="10" x="275.5" y="145.3125"/><rect fill="#FFFFFF" height="91.0547" style="stroke:#181818;stroke-width:1.0;" width="10" x="467.5" y="201.0156"/><rect fill="#FFFFFF" height="91.0547" style="stroke:#181818;stroke-width:1.0;" width="10" x="467.5" y="398.9609"/><rect fill="#FFFFFF" height="91.0547" style="stroke:#181818;stroke-width:1.0;" width="10" x="467.5" y="596.9063"/><rect fill="#FFFFFF" height="30.3516" style="stroke:#181818;stroke-width:1.0;" width="10" x="615.5" y="292.0703"/><rect fill="#FFFFFF" height="30.3516" style="stroke:#181818;stroke-width:1.0;" width="10" x="615.5" y="490.0156"/><rect fill="#FFFFFF" height="30.3516" style="stroke:#181818;stroke-width:1.0;" width="10" x="615.5" y="687.9609"/><rect fill="#FFFFFF" height="628.3516" style="stroke:#181818;stroke-width:1.0;" width="10" x="696" y="352.7734"/><rect fill="none" height="596.3516" style="stroke:#000000;stroke-width:1.5;" width="537" x="221" y="160.3125"/><line style="stroke:#181818;stroke-width:0.5;stroke-dasharray:5.0,5.0;" x1="22" x2="22" y1="82.6094" y2="1029.4766"/><line style="stroke:#181818;stroke-width:0.5;stroke-dasharray:5.0,5.0;" x1="116.5" x2="116.5" y1="82.6094" y2="1029.4766"/><line style="stroke:#181818;stroke-width:0.5;stroke-dasharray:5.0,5.0;" x1="280" x2="280" y1="82.6094" y2="1029.4766"/><line style="stroke:#181818;stroke-width:0.5;stroke-dasharray:5.0,5.0;" x1="472" x2="472" y1="82.6094" y2="1029.4766"/><line style="stroke:#181818;stroke-width:0.5;stroke-dasharray:5.0,5.0;" x1="620" x2="620" y1="82.6094" y2="1029.4766"/><line style="stroke:#181818;stroke-width:0.5;stroke-dasharray:5.0,5.0;" x1="701" x2="701" y1="82.6094" y2="1029.4766"/><text fill="#000000" font-family="sans-serif" font-size="14" lengthAdjust="spacing" textLength="29" x="5" y="79.5332">User</text><ellipse cx="22.5" cy="13.5" fill="#E2E2F0" rx="8" ry="8" style="stroke:#181818;stroke-width:0.5;"/><path d="M22.5,21.5 L22.5,48.5 M9.5,29.5 L35.5,29.5 M22.5,48.5 L9.5,63.5 M22.5,48.5 L35.5,63.5 " fill="none" style="stroke:#181818;stroke-width:0.5;"/><text fill="#000000" font-family="sans-serif" font-size="14" lengthAdjust="spacing" textLength="29" x="5" y="1043.0098">User</text><ellipse cx="22.5" cy="1054.5859" fill="#E2E2F0" rx="8" ry="8" style="stroke:#181818;stroke-width:0.5;"/><path d="M22.5,1062.5859 L22.5,1089.5859 M9.5,1070.5859 L35.5,1070.5859 M22.5,1089.5859 L9.5,1104.5859 M22.5,1089.5859 L35.5,1104.5859 " fill="none" style="stroke:#181818;stroke-width:0.5;"/><rect fill="#E2E2F0" height="31.6094" rx="2.5" ry="2.5" style="stroke:#181818;stroke-width:0.5;" width="44" x="94.5" y="50"/><text fill="#000000" font-family="sans-serif" font-size="14" lengthAdjust="spacing" textLength="30" x="101.5" y="71.5332">Main</text><rect fill="#E2E2F0" height="31.6094" rx="2.5" ry="2.5" style="stroke:#181818;stroke-width:0.5;" width="44" x="94.5" y="1028.4766"/><text fill="#000000" font-family="sans-serif" font-size="14" lengthAdjust="spacing" textLength="30" x="101.5" y="1050.0098">Main</text><rect fill="#E2E2F0" height="31.6094" rx="2.5" ry="2.5" style="stroke:#181818;stroke-width:0.5;" width="99" x="231" y="50"/><text fill="#000000" font-family="sans-serif" font-size="14" lengthAdjust="spacing" textLength="85" x="238" y="71.5332">Configuration</text><rect fill="#E2E2F0" height="31.6094" rx="2.5" ry="2.5" style="stroke:#181818;stroke-width:0.5;" width="99" x="231" y="1028.4766"/><text fill="#000000" font-family="sans-serif" font-size="14" lengthAdjust="spacing" textLength="85" x="238" y="1050.0098">Configuration</text><rect fill="#E2E2F0" height="31.6094" rx="2.5" ry="2.5" style="stroke:#181818;stroke-width:0.5;" width="95" x="425" y="50"/><text fill="#000000" font-family="sans-serif" font-size="14" lengthAdjust="spacing" textLength="81" x="432" y="71.5332">MazeFactory</text><rect fill="#E2E2F0" height="31.6094" rx="2.5" ry="2.5" style="stroke:#181818;stroke-width:0.5;" width="95" x="425" y="1028.4766"/><text fill="#000000" font-family="sans-serif" font-size="14" lengthAdjust="spacing" textLength="81" x="432" y="1050.0098">MazeFactory</text><rect fill="#E2E2F0" height="31.6094" rx="2.5" ry="2.5" style="stroke:#181818;stroke-width:0.5;" width="47" x="597" y="50"/><text fill="#000000" font-family="sans-serif" font-size="14" lengthAdjust="spacing" textLength="33" x="604" y="71.5332">Maze</text><rect fill="#E2E2F0" height="31.6094" rx="2.5" ry="2.5" style="stroke:#181818;stroke-width:0.5;" width="47" x="597" y="1028.4766"/><text fill="#000000" font-family="sans-serif" font-size="14" lengthAdjust="spacing" textLength="33" x="604" y="1050.0098">Maze</text><rect fill="#E2E2F0" height="31.6094" rx="2.5" ry="2.5" style="stroke:#181818;stroke-width:0.5;" width="94" x="654" y="50"/><text fill="#000000" font-family="sans-serif" font-size="14" lengthAdjust="spacing" textLength="80" x="661" y="71.5332">MazeService</text><rect fill="#E2E2F0" height="31.6094" rx="2.5" ry="2.5" style="stroke:#181818;stroke-width:0.5;" width="94" x="654" y="1028.4766"/><text fill="#000000" font-family="sans-serif" font-size="14" lengthAdjust="spacing" textLength="80" x="661" y="1050.0098">MazeService</text><rect fill="#FFFFFF" height="905.5156" style="stroke:#181818;stroke-width:1.0;" width="10" x="111.5" y="114.9609"/><rect fill="#FFFFFF" height="731.7578" style="stroke:#181818;stroke-width:1.0;" width="10" x="275.5" y="145.3125"/><rect fill="#FFFFFF" height="91.0547" style="stroke:#181818;stroke-width:1.0;" width="10" x="467.5" y="201.0156"/><rect fill="#FFFFFF" height="91.0547" style="stroke:#181818;stroke-width:1.0;" width="10" x="467.5" y="398.9609"/><rect fill="#FFFFFF" height="91.0547" style="stroke:#181818;stroke-width:1.0;" width="10" x="467.5" y="596.9063"/><rect fill="#FFFFFF" height="30.3516" style="stroke:#181818;stroke-width:1.0;" width="10" x="615.5" y="292.0703"/><rect fill="#FFFFFF" height="30.3516" style="stroke:#181818;stroke-width:1.0;" width="10" x="615.5" y="490.0156"/><rect fill="#FFFFFF" height="30.3516" style="stroke:#181818;stroke-width:1.0;" width="10" x="615.5" y="687.9609"/><rect fill="#FFFFFF" height="628.3516" style="stroke:#181818;stroke-width:1.0;" width="10" x="696" y="352.7734"/><polygon fill="#181818" points="99.5,110.9609,109.5,114.9609,99.5,118.9609,103.5,114.9609" style="stroke:#181818;stroke-width:1.0;"/><line style="stroke:#181818;stroke-width:1.0;" x1="22.5" x2="105.5" y1="114.9609" y2="114.9609"/><text fill="#000000" font-family="sans-serif" font-size="13" lengthAdjust="spacing" textLength="25" x="29.5" y="110.1045">args</text><polygon fill="#181818" points="263.5,141.3125,273.5,145.3125,263.5,149.3125,267.5,145.3125" style="stroke:#181818;stroke-width:1.0;"/><line style="stroke:#181818;stroke-width:1.0;" x1="121.5" x2="269.5" y1="145.3125" y2="145.3125"/><text fill="#000000" font-family="sans-serif" font-size="13" lengthAdjust="spacing" textLength="135" x="128.5" y="140.4561">new Configuration(args)</text><path d="M221,160.3125 L282,160.3125 L282,168.6641 L272,178.6641 L221,178.6641 L221,160.3125 " fill="#EEEEEE" style="stroke:#000000;stroke-width:1.5;"/><rect fill="none" height="596.3516" style="stroke:#000000;stroke-width:1.5;" width="537" x="221" y="160.3125"/><text fill="#000000" font-family="sans-serif" font-size="13" font-weight="bold" lengthAdjust="spacing" textLength="16" x="236" y="174.8076">alt</text><text fill="#000000" font-family="sans-serif" font-size="11" font-weight="bold" lengthAdjust="spacing" textLength="82" x="297" y="173.7314">[Path Checker]</text><polygon fill="#181818" points="455.5,197.0156,465.5,201.0156,455.5,205.0156,459.5,201.0156" style="stroke:#181818;stroke-width:1.0;"/><line style="stroke:#181818;stroke-width:1.0;" x1="285.5" x2="461.5" y1="201.0156" y2="201.0156"/><text fill="#000000" font-family="sans-serif" font-size="13" lengthAdjust="spacing" textLength="163" x="292.5" y="196.1592">new StandardMazeFactory()</text><polygon fill="#181818" points="296.5,227.3672,286.5,231.3672,296.5,235.3672,292.5,231.3672" style="stroke:#181818;stroke-width:1.0;"/><line style="stroke:#181818;stroke-width:1.0;" x1="290.5" x2="466.5" y1="231.3672" y2="231.3672"/><text fill="#000000" font-family="sans-serif" font-size="13" lengthAdjust="spacing" textLength="39" x="302.5" y="226.5107">factory</text><polygon fill="#181818" points="455.5,257.7188,465.5,261.7188,455.5,265.7188,459.5,261.7188" style="stroke:#181818;stroke-width:1.0;"/><line style="stroke:#181818;stroke-width:1.0;" x1="285.5" x2="461.5" y1="261.7188" y2="261.7188"/><text fill="#000000" font-family="sans-serif" font-size="13" lengthAdjust="spacing" textLength="35" x="292.5" y="256.8623">build()</text><polygon fill="#181818" points="603.5,288.0703,613.5,292.0703,603.5,296.0703,607.5,292.0703" style="stroke:#181818;stroke-width:1.0;"/><line style="stroke:#181818;stroke-width:1.0;" x1="472.5" x2="609.5" y1="292.0703" y2="292.0703"/><text fill="#000000" font-family="sans-serif" font-size="13" lengthAdjust="spacing" textLength="119" x="479.5" y="287.2139">new StandardMaze()</text><polygon fill="#181818" points="296.5,318.4219,286.5,322.4219,296.5,326.4219,292.5,322.4219" style="stroke:#181818;stroke-width:1.0;"/><line style="stroke:#181818;stroke-width:1.0;" x1="290.5" x2="619.5" y1="322.4219" y2="322.4219"/><text fill="#000000" font-family="sans-serif" font-size="13" lengthAdjust="spacing" textLength="82" x="302.5" y="317.5654">standardMaze</text><polygon fill="#181818" points="684,348.7734,694,352.7734,684,356.7734,688,352.7734" style="stroke:#181818;stroke-width:1.0;"/><line style="stroke:#181818;stroke-width:1.0;" x1="285.5" x2="690" y1="352.7734" y2="352.7734"/><text fill="#000000" font-family="sans-serif" font-size="13" lengthAdjust="spacing" textLength="192" x="292.5" y="347.917">new PathChecker(standardMaze)</text><line style="stroke:#000000;stroke-width:1.0;stroke-dasharray:2.0,2.0;" x1="221" x2="758" y1="361.7734" y2="361.7734"/><text fill="#000000" font-family="sans-serif" font-size="11" font-weight="bold" lengthAdjust="spacing" textLength="104" x="226" y="373.1924">[Right Hand Solver]</text><polygon fill="#181818" points="455.5,394.9609,465.5,398.9609,455.5,402.9609,459.5,398.9609" style="stroke:#181818;stroke-width:1.0;"/><line style="stroke:#181818;stroke-width:1.0;" x1="285.5" x2="461.5" y1="398.9609" y2="398.9609"/><text fill="#000000" font-family="sans-serif" font-size="13" lengthAdjust="spacing" textLength="163" x="292.5" y="394.1045">new StandardMazeFactory()</text><polygon fill="#181818" points="296.5,425.3125,286.5,429.3125,296.5,433.3125,292.5,429.3125" style="stroke:#181818;stroke-width:1.0;"/><line style="stroke:#181818;stroke-width:1.0;" x1="290.5" x2="466.5" y1="429.3125" y2="429.3125"/><text fill="#000000" font-family="sans-serif" font-size="13" lengthAdjust="spacing" textLength="39" x="302.5" y="424.4561">factory</text><polygon fill="#181818" points="455.5,455.6641,465.5,459.6641,455.5,463.6641,459.5,459.6641" style="stroke:#181818;stroke-width:1.0;"/><line style="stroke:#181818;stroke-width:1.0;" x1="285.5" x2="461.5" y1="459.6641" y2="459.6641"/><text fill="#000000" font-family="sans-serif" font-size="13" lengthAdjust="spacing" textLength="35" x="292.5" y="454.8076">build()</text><polygon fill="#181818" points="603.5,486.0156,613.5,490.0156,603.5,494.0156,607.5,490.0156" style="stroke:#181818;stroke-width:1.0;"/><line style="stroke:#181818;stroke-width:1.0;" x1="472.5" x2="609.5" y1="490.0156" y2="490.0156"/><text fill="#000000" font-family="sans-serif" font-size="13" lengthAdjust="spacing" textLength="119" x="479.5" y="485.1592">new StandardMaze()</text><polygon fill="#181818" points="296.5,516.3672,286.5,520.3672,296.5,524.3672,292.5,520.3672" style="stroke:#181818;stroke-width:1.0;"/><line style="stroke:#181818;stroke-width:1.0;" x1="290.5" x2="619.5" y1="520.3672" y2="520.3672"/><text fill="#000000" font-family="sans-serif" font-size="13" lengthAdjust="spacing" textLength="82" x="302.5" y="515.5107">standardMaze</text><polygon fill="#181818" points="684,546.7188,694,550.7188,684,554.7188,688,550.7188" style="stroke:#181818;stroke-width:1.0;"/><line style="stroke:#181818;stroke-width:1.0;" x1="285.5" x2="690" y1="550.7188" y2="550.7188"/><text fill="#000000" font-family="sans-serif" font-size="13" lengthAdjust="spacing" textLength="212" x="292.5" y="545.8623">new RightHandSolver(standardMaze)</text><line style="stroke:#000000;stroke-width:1.0;stroke-dasharray:2.0,2.0;" x1="221" x2="758" y1="559.7188" y2="559.7188"/><text fill="#000000" font-family="sans-serif" font-size="11" font-weight="bold" lengthAdjust="spacing" textLength="120" x="226" y="571.1377">[Breadth First Search]</text><polygon fill="#181818" points="455.5,592.9063,465.5,596.9063,455.5,600.9063,459.5,596.9063" style="stroke:#181818;stroke-width:1.0;"/><line style="stroke:#181818;stroke-width:1.0;" x1="285.5" x2="461.5" y1="596.9063" y2="596.9063"/><text fill="#000000" font-family="sans-serif" font-size="13" lengthAdjust="spacing" textLength="146" x="292.5" y="592.0498">new GraphMazeFactory()</text><polygon fill="#181818" points="296.5,623.2578,286.5,627.2578,296.5,631.2578,292.5,627.2578" style="stroke:#181818;stroke-width:1.0;"/><line style="stroke:#181818;stroke-width:1.0;" x1="290.5" x2="466.5" y1="627.2578" y2="627.2578"/><text fill="#000000" font-family="sans-serif" font-size="13" lengthAdjust="spacing" textLength="39" x="302.5" y="622.4014">factory</text><polygon fill="#181818" points="455.5,653.6094,465.5,657.6094,455.5,661.6094,459.5,657.6094" style="stroke:#181818;stroke-width:1.0;"/><line style="stroke:#181818;stroke-width:1.0;" x1="285.5" x2="461.5" y1="657.6094" y2="657.6094"/><text fill="#000000" font-family="sans-serif" font-size="13" lengthAdjust="spacing" textLength="35" x="292.5" y="652.7529">build()</text><polygon fill="#181818" points="603.5,683.9609,613.5,687.9609,603.5,691.9609,607.5,687.9609" style="stroke:#181818;stroke-width:1.0;"/><line style="stroke:#181818;stroke-width:1.0;" x1="472.5" x2="609.5" y1="687.9609" y2="687.9609"/><text fill="#000000" font-family="sans-serif" font-size="13" lengthAdjust="spacing" textLength="102" x="479.5" y="683.1045">new GraphMaze()</text><polygon fill="#181818" points="296.5,714.3125,286.5,718.3125,296.5,722.3125,292.5,718.3125" style="stroke:#181818;stroke-width:1.0;"/><line style="stroke:#181818;stroke-width:1.0;" x1="290.5" x2="619.5" y1="718.3125" y2="718.3125"/><text fill="#000000" font-family="sans-serif" font-size="13" lengthAdjust="spacing" textLength="64" x="302.5" y="713.4561">graphMaze</text><polygon fill="#181818" points="684,744.6641,694,748.6641,684,752.6641,688,748.6641" style="stroke:#181818;stroke-width:1.0;"/><line style="stroke:#181818;stroke-width:1.0;" x1="285.5" x2="690" y1="748.6641" y2="748.6641"/><text fill="#000000" font-family="sans-serif" font-size="13" lengthAdjust="spacing" textLength="246" x="292.5" y="743.8076">new BreadthFirstSearchSolver(graphMaze)</text><polygon fill="#181818" points="296.5,782.0156,286.5,786.0156,296.5,790.0156,292.5,786.0156" style="stroke:#181818;stroke-width:1.0;"/><line style="stroke:#181818;stroke-width:1.0;" x1="290.5" x2="695" y1="786.0156" y2="786.0156"/><text fill="#000000" font-family="sans-serif" font-size="13" lengthAdjust="spacing" textLength="74" x="302.5" y="781.1592">mazeService</text><polygon fill="#181818" points="132.5,812.3672,122.5,816.3672,132.5,820.3672,128.5,816.3672" style="stroke:#181818;stroke-width:1.0;"/><line style="stroke:#181818;stroke-width:1.0;" x1="126.5" x2="274.5" y1="816.3672" y2="816.3672"/><text fill="#000000" font-family="sans-serif" font-size="13" lengthAdjust="spacing" textLength="34" x="138.5" y="811.5107">config</text><polygon fill="#181818" points="263.5,842.7188,273.5,846.7188,263.5,850.7188,267.5,846.7188" style="stroke:#181818;stroke-width:1.0;"/><line style="stroke:#181818;stroke-width:1.0;" x1="121.5" x2="269.5" y1="846.7188" y2="846.7188"/><text fill="#000000" font-family="sans-serif" font-size="13" lengthAdjust="spacing" textLength="106" x="128.5" y="841.8623">config.getService()</text><polygon fill="#181818" points="132.5,873.0703,122.5,877.0703,132.5,881.0703,128.5,877.0703" style="stroke:#181818;stroke-width:1.0;"/><line style="stroke:#181818;stroke-width:1.0;" x1="126.5" x2="279.5" y1="877.0703" y2="877.0703"/><text fill="#000000" font-family="sans-serif" font-size="13" lengthAdjust="spacing" textLength="40" x="138.5" y="872.2139">service</text><polygon fill="#181818" points="684,903.4219,694,907.4219,684,911.4219,688,907.4219" style="stroke:#181818;stroke-width:1.0;"/><line style="stroke:#181818;stroke-width:1.0;" x1="121.5" x2="690" y1="907.4219" y2="907.4219"/><text fill="#000000" font-family="sans-serif" font-size="13" lengthAdjust="spacing" textLength="70" x="128.5" y="902.5654">service.run()</text><line style="stroke:#181818;stroke-width:1.0;" x1="706" x2="748" y1="937.7734" y2="937.7734"/><line style="stroke:#181818;stroke-width:1.0;" x1="748" x2="748" y1="937.7734" y2="950.7734"/><line style="stroke:#181818;stroke-width:1.0;" x1="707" x2="748" y1="950.7734" y2="950.7734"/><polygon fill="#181818" points="717,946.7734,707,950.7734,717,954.7734,713,950.7734" style="stroke:#181818;stroke-width:1.0;"/><text fill="#000000" font-family="sans-serif" font-size="13" lengthAdjust="spacing" textLength="163" x="713" y="932.917">Check Path / Compute Path</text><polygon fill="#181818" points="132.5,977.125,122.5,981.125,132.5,985.125,128.5,981.125" style="stroke:#181818;stroke-width:1.0;"/><line style="stroke:#181818;stroke-width:1.0;" x1="126.5" x2="700" y1="981.125" y2="981.125"/><text fill="#000000" font-family="sans-serif" font-size="13" lengthAdjust="spacing" textLength="32" x="138.5" y="976.2686">result</text><polygon fill="#181818" points="33.5,1007.4766,23.5,1011.4766,33.5,1015.4766,29.5,1011.4766" style="stroke:#181818;stroke-width:1.0;"/><line style="stroke:#181818;stroke-width:1.0;" x1="27.5" x2="110.5" y1="1011.4766" y2="1011.4766"/><text fill="#000000" font-family="sans-serif" font-size="13" lengthAdjust="spacing" textLength="65" x="39.5" y="1006.6201">print(result)</text><!--SRC=[xLNBJiCm4BpxAtnC3vHx3noeLBWW8I8-O4csYKLmehLJ15-FNqdjF112874WXqgsTsV6CyaM2jqIVrH8h0FIeX0TICtlGCXaOz_AewXw0YrQEIbznmDOcBVP_cmZHpg90XbZbf9VN3cc7GUg53CWuWGQFRlziGK9yuvBV4stCjkxEJUdIiq3ZURte6k-hx5uDXVbvacgl8xn6fuaro1Be38wo3QkDz9vlhezYDOBoezHvUVqJxreoa0smRJBkRvGM-AgjEHW15vGgIBO2UYwyX2h5sQz3bPdCTg2USFhW8r2_Y2gMlDRqy3pjZdz1_NRGJd3hT_UxabOBfDhGYZDftCGf3JF4QYelnZB3K5N_zLCHd4_64WrO7ulZM2rSzeR7M8PSKqcicGiwbnGyH9FsGLMEsqBjxqsOVtfja8TS8n7Aq0g44NsfUDte4Xk6xgsr4i3FRbEKkd6Y1_UbmRvfUiDWrtEkwmSGjKtcat27DmOjDX_dXtlI4YT-OuDOny0]--></g></svg>