<?xml version="1.0" encoding="us-ascii" standalone="no"?><svg xmlns="http://www.w3.org/2000/svg" xmlns:xlink="http://www.w3.org/1999/xlink" contentStyleType="text/css" height="860px" preserveAspectRatio="none" style="width:1165px;height:860px;background:#FFFFFF;" version="1.1" viewBox="0 0 1165 860" width="1165px" zoomAndPan="magnify"><defs/><g><!--cluster util--><g id="cluster_util"><rect fill="none" height="291.5" rx="2.5" ry="2.5" style="stroke:#181818;stroke-width:1.0;" width="266" x="636" y="563"/><path d="M668,563 L668,573.6094 L658,583.6094 L636,583.6094 " fill="none" style="stroke:#181818;stroke-width:1.0;"/><text fill="#000000" font-family="sans-serif" font-size="14" font-weight="bold" lengthAdjust="spacing" textLength="22" x="639" y="578.5332">util</text></g><!--cluster maze--><g id="cluster_maze"><rect fill="none" height="521.5" rx="2.5" ry="2.5" style="stroke:#181818;stroke-width:1.0;" width="578" x="7" y="155"/><path d="M53,155 L53,165.6094 L43,175.6094 L7,175.6094 " fill="none" style="stroke:#181818;stroke-width:1.0;"/><text fill="#000000" font-family="sans-serif" font-size="14" font-weight="bold" lengthAdjust="spacing" textLength="36" x="10" y="170.5332">maze</text></g><!--cluster standard--><g id="cluster_standard"><rect fill="none" height="176" rx="2.5" ry="2.5" style="stroke:#181818;stroke-width:1.0;" width="204" x="147" y="355"/><path d="M219,355 L219,365.6094 L209,375.6094 L147,375.6094 " fill="none" style="stroke:#181818;stroke-width:1.0;"/><text fill="#000000" font-family="sans-serif" font-size="14" font-weight="bold" lengthAdjust="spacing" textLength="62" x="150" y="370.5332">standard</text></g><!--cluster graph--><g id="cluster_graph"><rect fill="none" height="192" rx="2.5" ry="2.5" style="stroke:#181818;stroke-width:1.0;" width="186" x="375" y="247"/><path d="M426,247 L426,257.6094 L416,267.6094 L375,267.6094 " fill="none" style="stroke:#181818;stroke-width:1.0;"/><text fill="#000000" font-family="sans-serif" font-size="14" font-weight="bold" lengthAdjust="spacing" textLength="41" x="378" y="262.5332">graph</text></g><!--cluster services--><g id="cluster_services"><rect fill="none" height="176" rx="2.5" ry="2.5" style="stroke:#181818;stroke-width:1.0;" width="550" x="609" y="155"/><path d="M680,155 L680,165.6094 L670,175.6094 L609,175.6094 " fill="none" style="stroke:#181818;stroke-width:1.0;"/><text fill="#000000" font-family="sans-serif" font-size="14" font-weight="bold" lengthAdjust="spacing" textLength="61" x="612" y="170.5332">services</text></g><!--class Path--><g id="elem_Path"><rect codeLine="4" fill="#F1F1F1" height="32" id="Path" rx="2.5" ry="2.5" style="stroke:#181818;stroke-width:0.5;" width="61" x="797.5" y="607"/><ellipse cx="812.5" cy="623" fill="#ADD1B2" rx="11" ry="11" style="stroke:#181818;stroke-width:1.0;"/><path d="M815.2656,618.875 Q815.4219,618.6563 815.6094,618.5469 Q815.7969,618.4375 816.0156,618.4375 Q816.3906,618.4375 816.625,618.7031 Q816.8594,618.9531 816.8594,619.5625 L816.8594,621.0156 Q816.8594,621.625 816.625,621.8906 Q816.3906,622.1563 816.0156,622.1563 Q815.6719,622.1563 815.4688,621.9531 Q815.2656,621.7656 815.1563,621.25 Q815.1094,620.8906 814.9219,620.7031 Q814.5938,620.3281 813.9844,620.1094 Q813.375,619.8906 812.75,619.8906 Q811.9844,619.8906 811.3438,620.2188 Q810.7188,620.5469 810.2188,621.2969 Q809.7344,622.0469 809.7344,623.0781 L809.7344,624.1719 Q809.7344,625.4063 810.625,626.2344 Q811.5156,627.0469 813.1094,627.0469 Q814.0469,627.0469 814.7031,626.7969 Q815.0938,626.6406 815.5156,626.2031 Q815.7813,625.9375 815.9219,625.8594 Q816.0781,625.7813 816.2813,625.7813 Q816.6094,625.7813 816.8594,626.0469 Q817.125,626.2969 817.125,626.6406 Q817.125,626.9844 816.7813,627.3906 Q816.2813,627.9688 815.4844,628.2969 Q814.4063,628.75 813.1094,628.75 Q811.5938,628.75 810.3906,628.125 Q809.4063,627.625 808.7188,626.5625 Q808.0313,625.4844 808.0313,624.2031 L808.0313,623.0469 Q808.0313,621.7188 808.6406,620.5781 Q809.2656,619.4219 810.3594,618.8125 Q811.4531,618.1875 812.6875,618.1875 Q813.4219,618.1875 814.0625,618.3594 Q814.7188,618.5156 815.2656,618.875 Z " fill="#000000"/><text fill="#000000" font-family="sans-serif" font-size="14" lengthAdjust="spacing" textLength="29" x="826.5" y="628.7285">Path</text></g><!--class Coordinate--><g id="elem_Coordinate"><rect codeLine="5" fill="#F1F1F1" height="32" id="Coordinate" rx="2.5" ry="2.5" style="stroke:#181818;stroke-width:0.5;" width="102" x="660" y="607"/><ellipse cx="675" cy="623" fill="#ADD1B2" rx="11" ry="11" style="stroke:#181818;stroke-width:1.0;"/><path d="M677.7656,618.875 Q677.9219,618.6563 678.1094,618.5469 Q678.2969,618.4375 678.5156,618.4375 Q678.8906,618.4375 679.125,618.7031 Q679.3594,618.9531 679.3594,619.5625 L679.3594,621.0156 Q679.3594,621.625 679.125,621.8906 Q678.8906,622.1563 678.5156,622.1563 Q678.1719,622.1563 677.9688,621.9531 Q677.7656,621.7656 677.6563,621.25 Q677.6094,620.8906 677.4219,620.7031 Q677.0938,620.3281 676.4844,620.1094 Q675.875,619.8906 675.25,619.8906 Q674.4844,619.8906 673.8438,620.2188 Q673.2188,620.5469 672.7188,621.2969 Q672.2344,622.0469 672.2344,623.0781 L672.2344,624.1719 Q672.2344,625.4063 673.125,626.2344 Q674.0156,627.0469 675.6094,627.0469 Q676.5469,627.0469 677.2031,626.7969 Q677.5938,626.6406 678.0156,626.2031 Q678.2813,625.9375 678.4219,625.8594 Q678.5781,625.7813 678.7813,625.7813 Q679.1094,625.7813 679.3594,626.0469 Q679.625,626.2969 679.625,626.6406 Q679.625,626.9844 679.2813,627.3906 Q678.7813,627.9688 677.9844,628.2969 Q676.9063,628.75 675.6094,628.75 Q674.0938,628.75 672.8906,628.125 Q671.9063,627.625 671.2188,626.5625 Q670.5313,625.4844 670.5313,624.2031 L670.5313,623.0469 Q670.5313,621.7188 671.1406,620.5781 Q671.7656,619.4219 672.8594,618.8125 Q673.9531,618.1875 675.1875,618.1875 Q675.9219,618.1875 676.5625,618.3594 Q677.2188,618.5156 677.7656,618.875 Z " fill="#000000"/><text fill="#000000" font-family="sans-serif" font-size="14" lengthAdjust="spacing" textLength="70" x="689" y="628.7285">Coordinate</text></g><!--class CardinalDirection--><g id="elem_CardinalDirection"><rect codeLine="6" fill="#F1F1F1" height="110.4375" id="CardinalDirection" rx="2.5" ry="2.5" style="stroke:#181818;stroke-width:0.5;" width="141" x="660.5" y="720.5"/><ellipse cx="675.5" cy="736.5" fill="#EB937F" rx="11" ry="11" style="stroke:#181818;stroke-width:1.0;"/><path d="M674.3594,737.2969 L674.3594,739.7969 L678.6875,739.7969 L678.6875,738.875 Q678.6875,738.2656 678.9219,738 Q679.1719,737.7344 679.5469,737.7344 Q679.9219,737.7344 680.1563,738 Q680.3906,738.2656 680.3906,738.875 L680.3906,741.5 L672.3906,741.5 Q671.7656,741.5 671.5,741.2656 Q671.25,741.0313 671.25,740.6406 Q671.25,740.2656 671.5156,740.0313 Q671.7813,739.7969 672.3906,739.7969 L672.6563,739.7969 L672.6563,733.1406 L672.3906,733.1406 Q671.7656,733.1406 671.5,732.9063 Q671.25,732.6719 671.25,732.2813 Q671.25,731.9063 671.5,731.6719 Q671.7656,731.4375 672.3906,731.4375 L680.0156,731.4375 L680.0156,734.0313 Q680.0156,734.6406 679.7813,734.9063 Q679.5625,735.1563 679.1719,735.1563 Q678.7969,735.1563 678.5625,734.9063 Q678.3281,734.6406 678.3281,734.0313 L678.3281,733.1406 L674.3594,733.1406 L674.3594,735.5938 L675.8438,735.5938 Q675.8438,734.9375 675.9688,734.75 Q676.2344,734.3438 676.7031,734.3438 Q677.0781,734.3438 677.3125,734.6094 Q677.5469,734.8594 677.5469,735.4688 L677.5469,737.4375 Q677.5469,737.9844 677.4219,738.1719 Q677.1563,738.5625 676.7031,738.5625 Q676.2344,738.5625 675.9688,738.1563 Q675.8438,737.9688 675.8438,737.2969 L674.3594,737.2969 Z " fill="#000000"/><text fill="#000000" font-family="sans-serif" font-size="14" lengthAdjust="spacing" textLength="109" x="689.5" y="742.2285">CardinalDirection</text><line style="stroke:#181818;stroke-width:0.5;" x1="661.5" x2="800.5" y1="752.5" y2="752.5"/><text fill="#000000" font-family="sans-serif" font-size="14" lengthAdjust="spacing" textLength="48" x="666.5" y="771.0332">NORTH</text><text fill="#000000" font-family="sans-serif" font-size="14" lengthAdjust="spacing" textLength="36" x="666.5" y="788.6426">EAST</text><text fill="#000000" font-family="sans-serif" font-size="14" lengthAdjust="spacing" textLength="47" x="666.5" y="806.252">SOUTH</text><text fill="#000000" font-family="sans-serif" font-size="14" lengthAdjust="spacing" textLength="40" x="666.5" y="823.8613">WEST</text></g><!--class MazeElement--><g id="elem_MazeElement"><rect codeLine="16" fill="#F1F1F1" height="75.2188" id="MazeElement" rx="2.5" ry="2.5" style="stroke:#181818;stroke-width:0.5;" width="116" x="105" y="585.5"/><ellipse cx="120" cy="601.5" fill="#EB937F" rx="11" ry="11" style="stroke:#181818;stroke-width:1.0;"/><path d="M118.8594,602.2969 L118.8594,604.7969 L123.1875,604.7969 L123.1875,603.875 Q123.1875,603.2656 123.4219,603 Q123.6719,602.7344 124.0469,602.7344 Q124.4219,602.7344 124.6563,603 Q124.8906,603.2656 124.8906,603.875 L124.8906,606.5 L116.8906,606.5 Q116.2656,606.5 116,606.2656 Q115.75,606.0313 115.75,605.6406 Q115.75,605.2656 116.0156,605.0313 Q116.2813,604.7969 116.8906,604.7969 L117.1563,604.7969 L117.1563,598.1406 L116.8906,598.1406 Q116.2656,598.1406 116,597.9063 Q115.75,597.6719 115.75,597.2813 Q115.75,596.9063 116,596.6719 Q116.2656,596.4375 116.8906,596.4375 L124.5156,596.4375 L124.5156,599.0313 Q124.5156,599.6406 124.2813,599.9063 Q124.0625,600.1563 123.6719,600.1563 Q123.2969,600.1563 123.0625,599.9063 Q122.8281,599.6406 122.8281,599.0313 L122.8281,598.1406 L118.8594,598.1406 L118.8594,600.5938 L120.3438,600.5938 Q120.3438,599.9375 120.4688,599.75 Q120.7344,599.3438 121.2031,599.3438 Q121.5781,599.3438 121.8125,599.6094 Q122.0469,599.8594 122.0469,600.4688 L122.0469,602.4375 Q122.0469,602.9844 121.9219,603.1719 Q121.6563,603.5625 121.2031,603.5625 Q120.7344,603.5625 120.4688,603.1563 Q120.3438,602.9688 120.3438,602.2969 L118.8594,602.2969 Z " fill="#000000"/><text fill="#000000" font-family="sans-serif" font-size="14" lengthAdjust="spacing" textLength="84" x="134" y="607.2285">MazeElement</text><line style="stroke:#181818;stroke-width:0.5;" x1="106" x2="220" y1="617.5" y2="617.5"/><text fill="#000000" font-family="sans-serif" font-size="14" lengthAdjust="spacing" textLength="46" x="111" y="636.0332">SPACE</text><text fill="#000000" font-family="sans-serif" font-size="14" lengthAdjust="spacing" textLength="38" x="111" y="653.6426">WALL</text></g><!--class Maze--><g id="elem_Maze"><rect codeLine="20" fill="#F1F1F1" height="32" id="Maze" rx="2.5" ry="2.5" style="stroke:#181818;stroke-width:0.5;" width="67" x="288.5" y="607"/><ellipse cx="303.5" cy="623" fill="#B4A7E5" rx="11" ry="11" style="stroke:#181818;stroke-width:1.0;"/><path d="M304.4531,619.6406 L304.4531,626.2969 L306.1719,626.2969 Q306.7813,626.2969 307.0469,626.5313 Q307.3125,626.7656 307.3125,627.1563 Q307.3125,627.5313 307.0469,627.7656 Q306.7813,628 306.1719,628 L301.0313,628 Q300.4219,628 300.1563,627.7656 Q299.8906,627.5313 299.8906,627.1406 Q299.8906,626.7656 300.1563,626.5313 Q300.4219,626.2969 301.0313,626.2969 L302.75,626.2969 L302.75,619.6406 L301.0313,619.6406 Q300.4219,619.6406 300.1563,619.4063 Q299.8906,619.1719 299.8906,618.7813 Q299.8906,618.4063 300.1563,618.1719 Q300.4219,617.9375 301.0313,617.9375 L306.1719,617.9375 Q306.7813,617.9375 307.0469,618.1719 Q307.3125,618.4063 307.3125,618.7813 Q307.3125,619.1719 307.0469,619.4063 Q306.7813,619.6406 306.1719,619.6406 L304.4531,619.6406 Z " fill="#000000"/><text fill="#000000" font-family="sans-serif" font-size="14" font-style="italic" lengthAdjust="spacing" textLength="35" x="317.5" y="628.7285">Maze</text></g><!--class MazeFactory--><g id="elem_MazeFactory"><rect codeLine="21" fill="#F1F1F1" height="32" id="MazeFactory" rx="2.5" ry="2.5" style="stroke:#181818;stroke-width:0.5;" width="115" x="410.5" y="191"/><ellipse cx="425.5" cy="207" fill="#B4A7E5" rx="11" ry="11" style="stroke:#181818;stroke-width:1.0;"/><path d="M426.4531,203.6406 L426.4531,210.2969 L428.1719,210.2969 Q428.7813,210.2969 429.0469,210.5313 Q429.3125,210.7656 429.3125,211.1563 Q429.3125,211.5313 429.0469,211.7656 Q428.7813,212 428.1719,212 L423.0313,212 Q422.4219,212 422.1563,211.7656 Q421.8906,211.5313 421.8906,211.1406 Q421.8906,210.7656 422.1563,210.5313 Q422.4219,210.2969 423.0313,210.2969 L424.75,210.2969 L424.75,203.6406 L423.0313,203.6406 Q422.4219,203.6406 422.1563,203.4063 Q421.8906,203.1719 421.8906,202.7813 Q421.8906,202.4063 422.1563,202.1719 Q422.4219,201.9375 423.0313,201.9375 L428.1719,201.9375 Q428.7813,201.9375 429.0469,202.1719 Q429.3125,202.4063 429.3125,202.7813 Q429.3125,203.1719 429.0469,203.4063 Q428.7813,203.6406 428.1719,203.6406 L426.4531,203.6406 Z " fill="#000000"/><text fill="#000000" font-family="sans-serif" font-size="14" font-style="italic" lengthAdjust="spacing" textLength="83" x="439.5" y="212.7285">MazeFactory</text></g><!--class MazeParser--><g id="elem_MazeParser"><rect codeLine="22" fill="#F1F1F1" height="32" id="MazeParser" rx="2.5" ry="2.5" style="stroke:#181818;stroke-width:0.5;" width="107" x="23.5" y="483"/><ellipse cx="38.5" cy="499" fill="#ADD1B2" rx="11" ry="11" style="stroke:#181818;stroke-width:1.0;"/><path d="M41.2656,494.875 Q41.4219,494.6563 41.6094,494.5469 Q41.7969,494.4375 42.0156,494.4375 Q42.3906,494.4375 42.625,494.7031 Q42.8594,494.9531 42.8594,495.5625 L42.8594,497.0156 Q42.8594,497.625 42.625,497.8906 Q42.3906,498.1563 42.0156,498.1563 Q41.6719,498.1563 41.4688,497.9531 Q41.2656,497.7656 41.1563,497.25 Q41.1094,496.8906 40.9219,496.7031 Q40.5938,496.3281 39.9844,496.1094 Q39.375,495.8906 38.75,495.8906 Q37.9844,495.8906 37.3438,496.2188 Q36.7188,496.5469 36.2188,497.2969 Q35.7344,498.0469 35.7344,499.0781 L35.7344,500.1719 Q35.7344,501.4063 36.625,502.2344 Q37.5156,503.0469 39.1094,503.0469 Q40.0469,503.0469 40.7031,502.7969 Q41.0938,502.6406 41.5156,502.2031 Q41.7813,501.9375 41.9219,501.8594 Q42.0781,501.7813 42.2813,501.7813 Q42.6094,501.7813 42.8594,502.0469 Q43.125,502.2969 43.125,502.6406 Q43.125,502.9844 42.7813,503.3906 Q42.2813,503.9688 41.4844,504.2969 Q40.4063,504.75 39.1094,504.75 Q37.5938,504.75 36.3906,504.125 Q35.4063,503.625 34.7188,502.5625 Q34.0313,501.4844 34.0313,500.2031 L34.0313,499.0469 Q34.0313,497.7188 34.6406,496.5781 Q35.2656,495.4219 36.3594,494.8125 Q37.4531,494.1875 38.6875,494.1875 Q39.4219,494.1875 40.0625,494.3594 Q40.7188,494.5156 41.2656,494.875 Z " fill="#000000"/><text fill="#000000" font-family="sans-serif" font-size="14" lengthAdjust="spacing" textLength="75" x="52.5" y="504.7285">MazeParser</text></g><!--class StandardMaze--><g id="elem_StandardMaze"><rect codeLine="28" fill="#F1F1F1" height="32" id="StandardMaze" rx="2.5" ry="2.5" style="stroke:#181818;stroke-width:0.5;" width="123" x="211.5" y="483"/><ellipse cx="226.5" cy="499" fill="#ADD1B2" rx="11" ry="11" style="stroke:#181818;stroke-width:1.0;"/><path d="M229.2656,494.875 Q229.4219,494.6563 229.6094,494.5469 Q229.7969,494.4375 230.0156,494.4375 Q230.3906,494.4375 230.625,494.7031 Q230.8594,494.9531 230.8594,495.5625 L230.8594,497.0156 Q230.8594,497.625 230.625,497.8906 Q230.3906,498.1563 230.0156,498.1563 Q229.6719,498.1563 229.4688,497.9531 Q229.2656,497.7656 229.1563,497.25 Q229.1094,496.8906 228.9219,496.7031 Q228.5938,496.3281 227.9844,496.1094 Q227.375,495.8906 226.75,495.8906 Q225.9844,495.8906 225.3438,496.2188 Q224.7188,496.5469 224.2188,497.2969 Q223.7344,498.0469 223.7344,499.0781 L223.7344,500.1719 Q223.7344,501.4063 224.625,502.2344 Q225.5156,503.0469 227.1094,503.0469 Q228.0469,503.0469 228.7031,502.7969 Q229.0938,502.6406 229.5156,502.2031 Q229.7813,501.9375 229.9219,501.8594 Q230.0781,501.7813 230.2813,501.7813 Q230.6094,501.7813 230.8594,502.0469 Q231.125,502.2969 231.125,502.6406 Q231.125,502.9844 230.7813,503.3906 Q230.2813,503.9688 229.4844,504.2969 Q228.4063,504.75 227.1094,504.75 Q225.5938,504.75 224.3906,504.125 Q223.4063,503.625 222.7188,502.5625 Q222.0313,501.4844 222.0313,500.2031 L222.0313,499.0469 Q222.0313,497.7188 222.6406,496.5781 Q223.2656,495.4219 224.3594,494.8125 Q225.4531,494.1875 226.6875,494.1875 Q227.4219,494.1875 228.0625,494.3594 Q228.7188,494.5156 229.2656,494.875 Z " fill="#000000"/><text fill="#000000" font-family="sans-serif" font-size="14" lengthAdjust="spacing" textLength="91" x="240.5" y="504.7285">StandardMaze</text></g><!--class StandardMazeFactory--><g id="elem_StandardMazeFactory"><rect codeLine="27" fill="#F1F1F1" height="32" id="StandardMazeFactory" rx="2.5" ry="2.5" style="stroke:#181818;stroke-width:0.5;" width="171" x="163.5" y="391"/><ellipse cx="178.5" cy="407" fill="#ADD1B2" rx="11" ry="11" style="stroke:#181818;stroke-width:1.0;"/><path d="M181.2656,402.875 Q181.4219,402.6563 181.6094,402.5469 Q181.7969,402.4375 182.0156,402.4375 Q182.3906,402.4375 182.625,402.7031 Q182.8594,402.9531 182.8594,403.5625 L182.8594,405.0156 Q182.8594,405.625 182.625,405.8906 Q182.3906,406.1563 182.0156,406.1563 Q181.6719,406.1563 181.4688,405.9531 Q181.2656,405.7656 181.1563,405.25 Q181.1094,404.8906 180.9219,404.7031 Q180.5938,404.3281 179.9844,404.1094 Q179.375,403.8906 178.75,403.8906 Q177.9844,403.8906 177.3438,404.2188 Q176.7188,404.5469 176.2188,405.2969 Q175.7344,406.0469 175.7344,407.0781 L175.7344,408.1719 Q175.7344,409.4063 176.625,410.2344 Q177.5156,411.0469 179.1094,411.0469 Q180.0469,411.0469 180.7031,410.7969 Q181.0938,410.6406 181.5156,410.2031 Q181.7813,409.9375 181.9219,409.8594 Q182.0781,409.7813 182.2813,409.7813 Q182.6094,409.7813 182.8594,410.0469 Q183.125,410.2969 183.125,410.6406 Q183.125,410.9844 182.7813,411.3906 Q182.2813,411.9688 181.4844,412.2969 Q180.4063,412.75 179.1094,412.75 Q177.5938,412.75 176.3906,412.125 Q175.4063,411.625 174.7188,410.5625 Q174.0313,409.4844 174.0313,408.2031 L174.0313,407.0469 Q174.0313,405.7188 174.6406,404.5781 Q175.2656,403.4219 176.3594,402.8125 Q177.4531,402.1875 178.6875,402.1875 Q179.4219,402.1875 180.0625,402.3594 Q180.7188,402.5156 181.2656,402.875 Z " fill="#000000"/><text fill="#000000" font-family="sans-serif" font-size="14" lengthAdjust="spacing" textLength="139" x="192.5" y="412.7285">StandardMazeFactory</text></g><!--class GraphMazeFactory--><g id="elem_GraphMazeFactory"><rect codeLine="36" fill="#F1F1F1" height="32" id="GraphMazeFactory" rx="2.5" ry="2.5" style="stroke:#181818;stroke-width:0.5;" width="153" x="391.5" y="283"/><ellipse cx="406.5" cy="299" fill="#ADD1B2" rx="11" ry="11" style="stroke:#181818;stroke-width:1.0;"/><path d="M409.2656,294.875 Q409.4219,294.6563 409.6094,294.5469 Q409.7969,294.4375 410.0156,294.4375 Q410.3906,294.4375 410.625,294.7031 Q410.8594,294.9531 410.8594,295.5625 L410.8594,297.0156 Q410.8594,297.625 410.625,297.8906 Q410.3906,298.1563 410.0156,298.1563 Q409.6719,298.1563 409.4688,297.9531 Q409.2656,297.7656 409.1563,297.25 Q409.1094,296.8906 408.9219,296.7031 Q408.5938,296.3281 407.9844,296.1094 Q407.375,295.8906 406.75,295.8906 Q405.9844,295.8906 405.3438,296.2188 Q404.7188,296.5469 404.2188,297.2969 Q403.7344,298.0469 403.7344,299.0781 L403.7344,300.1719 Q403.7344,301.4063 404.625,302.2344 Q405.5156,303.0469 407.1094,303.0469 Q408.0469,303.0469 408.7031,302.7969 Q409.0938,302.6406 409.5156,302.2031 Q409.7813,301.9375 409.9219,301.8594 Q410.0781,301.7813 410.2813,301.7813 Q410.6094,301.7813 410.8594,302.0469 Q411.125,302.2969 411.125,302.6406 Q411.125,302.9844 410.7813,303.3906 Q410.2813,303.9688 409.4844,304.2969 Q408.4063,304.75 407.1094,304.75 Q405.5938,304.75 404.3906,304.125 Q403.4063,303.625 402.7188,302.5625 Q402.0313,301.4844 402.0313,300.2031 L402.0313,299.0469 Q402.0313,297.7188 402.6406,296.5781 Q403.2656,295.4219 404.3594,294.8125 Q405.4531,294.1875 406.6875,294.1875 Q407.4219,294.1875 408.0625,294.3594 Q408.7188,294.5156 409.2656,294.875 Z " fill="#000000"/><text fill="#000000" font-family="sans-serif" font-size="14" lengthAdjust="spacing" textLength="121" x="420.5" y="304.7285">GraphMazeFactory</text></g><!--class GraphMaze--><g id="elem_GraphMaze"><rect codeLine="37" fill="#F1F1F1" height="32" id="GraphMaze" rx="2.5" ry="2.5" style="stroke:#181818;stroke-width:0.5;" width="105" x="413.5" y="391"/><ellipse cx="428.5" cy="407" fill="#ADD1B2" rx="11" ry="11" style="stroke:#181818;stroke-width:1.0;"/><path d="M431.2656,402.875 Q431.4219,402.6563 431.6094,402.5469 Q431.7969,402.4375 432.0156,402.4375 Q432.3906,402.4375 432.625,402.7031 Q432.8594,402.9531 432.8594,403.5625 L432.8594,405.0156 Q432.8594,405.625 432.625,405.8906 Q432.3906,406.1563 432.0156,406.1563 Q431.6719,406.1563 431.4688,405.9531 Q431.2656,405.7656 431.1563,405.25 Q431.1094,404.8906 430.9219,404.7031 Q430.5938,404.3281 429.9844,404.1094 Q429.375,403.8906 428.75,403.8906 Q427.9844,403.8906 427.3438,404.2188 Q426.7188,404.5469 426.2188,405.2969 Q425.7344,406.0469 425.7344,407.0781 L425.7344,408.1719 Q425.7344,409.4063 426.625,410.2344 Q427.5156,411.0469 429.1094,411.0469 Q430.0469,411.0469 430.7031,410.7969 Q431.0938,410.6406 431.5156,410.2031 Q431.7813,409.9375 431.9219,409.8594 Q432.0781,409.7813 432.2813,409.7813 Q432.6094,409.7813 432.8594,410.0469 Q433.125,410.2969 433.125,410.6406 Q433.125,410.9844 432.7813,411.3906 Q432.2813,411.9688 431.4844,412.2969 Q430.4063,412.75 429.1094,412.75 Q427.5938,412.75 426.3906,412.125 Q425.4063,411.625 424.7188,410.5625 Q424.0313,409.4844 424.0313,408.2031 L424.0313,407.0469 Q424.0313,405.7188 424.6406,404.5781 Q425.2656,403.4219 426.3594,402.8125 Q427.4531,402.1875 428.6875,402.1875 Q429.4219,402.1875 430.0625,402.3594 Q430.7188,402.5156 431.2656,402.875 Z " fill="#000000"/><text fill="#000000" font-family="sans-serif" font-size="14" lengthAdjust="spacing" textLength="73" x="442.5" y="412.7285">GraphMaze</text></g><!--class MazeService--><g id="elem_MazeService"><rect codeLine="47" fill="#F1F1F1" height="32" id="MazeService" rx="2.5" ry="2.5" style="stroke:#181818;stroke-width:0.5;" width="113" x="761.5" y="191"/><ellipse cx="776.5" cy="207" fill="#B4A7E5" rx="11" ry="11" style="stroke:#181818;stroke-width:1.0;"/><path d="M777.4531,203.6406 L777.4531,210.2969 L779.1719,210.2969 Q779.7813,210.2969 780.0469,210.5313 Q780.3125,210.7656 780.3125,211.1563 Q780.3125,211.5313 780.0469,211.7656 Q779.7813,212 779.1719,212 L774.0313,212 Q773.4219,212 773.1563,211.7656 Q772.8906,211.5313 772.8906,211.1406 Q772.8906,210.7656 773.1563,210.5313 Q773.4219,210.2969 774.0313,210.2969 L775.75,210.2969 L775.75,203.6406 L774.0313,203.6406 Q773.4219,203.6406 773.1563,203.4063 Q772.8906,203.1719 772.8906,202.7813 Q772.8906,202.4063 773.1563,202.1719 Q773.4219,201.9375 774.0313,201.9375 L779.1719,201.9375 Q779.7813,201.9375 780.0469,202.1719 Q780.3125,202.4063 780.3125,202.7813 Q780.3125,203.1719 780.0469,203.4063 Q779.7813,203.6406 779.1719,203.6406 L777.4531,203.6406 Z " fill="#000000"/><text fill="#000000" font-family="sans-serif" font-size="14" font-style="italic" lengthAdjust="spacing" textLength="81" x="790.5" y="212.7285">MazeService</text></g><!--class RightHandSolver--><g id="elem_RightHandSolver"><rect codeLine="48" fill="#F1F1F1" height="32" id="RightHandSolver" rx="2.5" ry="2.5" style="stroke:#181818;stroke-width:0.5;" width="138" x="1005" y="283"/><ellipse cx="1020" cy="299" fill="#ADD1B2" rx="11" ry="11" style="stroke:#181818;stroke-width:1.0;"/><path d="M1022.7656,294.875 Q1022.9219,294.6563 1023.1094,294.5469 Q1023.2969,294.4375 1023.5156,294.4375 Q1023.8906,294.4375 1024.125,294.7031 Q1024.3594,294.9531 1024.3594,295.5625 L1024.3594,297.0156 Q1024.3594,297.625 1024.125,297.8906 Q1023.8906,298.1563 1023.5156,298.1563 Q1023.1719,298.1563 1022.9688,297.9531 Q1022.7656,297.7656 1022.6563,297.25 Q1022.6094,296.8906 1022.4219,296.7031 Q1022.0938,296.3281 1021.4844,296.1094 Q1020.875,295.8906 1020.25,295.8906 Q1019.4844,295.8906 1018.8438,296.2188 Q1018.2188,296.5469 1017.7188,297.2969 Q1017.2344,298.0469 1017.2344,299.0781 L1017.2344,300.1719 Q1017.2344,301.4063 1018.125,302.2344 Q1019.0156,303.0469 1020.6094,303.0469 Q1021.5469,303.0469 1022.2031,302.7969 Q1022.5938,302.6406 1023.0156,302.2031 Q1023.2813,301.9375 1023.4219,301.8594 Q1023.5781,301.7813 1023.7813,301.7813 Q1024.1094,301.7813 1024.3594,302.0469 Q1024.625,302.2969 1024.625,302.6406 Q1024.625,302.9844 1024.2813,303.3906 Q1023.7813,303.9688 1022.9844,304.2969 Q1021.9063,304.75 1020.6094,304.75 Q1019.0938,304.75 1017.8906,304.125 Q1016.9063,303.625 1016.2188,302.5625 Q1015.5313,301.4844 1015.5313,300.2031 L1015.5313,299.0469 Q1015.5313,297.7188 1016.1406,296.5781 Q1016.7656,295.4219 1017.8594,294.8125 Q1018.9531,294.1875 1020.1875,294.1875 Q1020.9219,294.1875 1021.5625,294.3594 Q1022.2188,294.5156 1022.7656,294.875 Z " fill="#000000"/><text fill="#000000" font-family="sans-serif" font-size="14" lengthAdjust="spacing" textLength="106" x="1034" y="304.7285">RightHandSolver</text></g><!--class PathChecker--><g id="elem_PathChecker"><rect codeLine="50" fill="#F1F1F1" height="32" id="PathChecker" rx="2.5" ry="2.5" style="stroke:#181818;stroke-width:0.5;" width="114" x="856" y="283"/><ellipse cx="871" cy="299" fill="#ADD1B2" rx="11" ry="11" style="stroke:#181818;stroke-width:1.0;"/><path d="M873.7656,294.875 Q873.9219,294.6563 874.1094,294.5469 Q874.2969,294.4375 874.5156,294.4375 Q874.8906,294.4375 875.125,294.7031 Q875.3594,294.9531 875.3594,295.5625 L875.3594,297.0156 Q875.3594,297.625 875.125,297.8906 Q874.8906,298.1563 874.5156,298.1563 Q874.1719,298.1563 873.9688,297.9531 Q873.7656,297.7656 873.6563,297.25 Q873.6094,296.8906 873.4219,296.7031 Q873.0938,296.3281 872.4844,296.1094 Q871.875,295.8906 871.25,295.8906 Q870.4844,295.8906 869.8438,296.2188 Q869.2188,296.5469 868.7188,297.2969 Q868.2344,298.0469 868.2344,299.0781 L868.2344,300.1719 Q868.2344,301.4063 869.125,302.2344 Q870.0156,303.0469 871.6094,303.0469 Q872.5469,303.0469 873.2031,302.7969 Q873.5938,302.6406 874.0156,302.2031 Q874.2813,301.9375 874.4219,301.8594 Q874.5781,301.7813 874.7813,301.7813 Q875.1094,301.7813 875.3594,302.0469 Q875.625,302.2969 875.625,302.6406 Q875.625,302.9844 875.2813,303.3906 Q874.7813,303.9688 873.9844,304.2969 Q872.9063,304.75 871.6094,304.75 Q870.0938,304.75 868.8906,304.125 Q867.9063,303.625 867.2188,302.5625 Q866.5313,301.4844 866.5313,300.2031 L866.5313,299.0469 Q866.5313,297.7188 867.1406,296.5781 Q867.7656,295.4219 868.8594,294.8125 Q869.9531,294.1875 871.1875,294.1875 Q871.9219,294.1875 872.5625,294.3594 Q873.2188,294.5156 873.7656,294.875 Z " fill="#000000"/><text fill="#000000" font-family="sans-serif" font-size="14" lengthAdjust="spacing" textLength="82" x="885" y="304.7285">PathChecker</text></g><!--class BreadthFirstSearchSolver--><g id="elem_BreadthFirstSearchSolver"><rect codeLine="52" fill="#F1F1F1" height="32" id="BreadthFirstSearchSolver" rx="2.5" ry="2.5" style="stroke:#181818;stroke-width:0.5;" width="195" x="625.5" y="283"/><ellipse cx="640.5" cy="299" fill="#ADD1B2" rx="11" ry="11" style="stroke:#181818;stroke-width:1.0;"/><path d="M643.2656,294.875 Q643.4219,294.6563 643.6094,294.5469 Q643.7969,294.4375 644.0156,294.4375 Q644.3906,294.4375 644.625,294.7031 Q644.8594,294.9531 644.8594,295.5625 L644.8594,297.0156 Q644.8594,297.625 644.625,297.8906 Q644.3906,298.1563 644.0156,298.1563 Q643.6719,298.1563 643.4688,297.9531 Q643.2656,297.7656 643.1563,297.25 Q643.1094,296.8906 642.9219,296.7031 Q642.5938,296.3281 641.9844,296.1094 Q641.375,295.8906 640.75,295.8906 Q639.9844,295.8906 639.3438,296.2188 Q638.7188,296.5469 638.2188,297.2969 Q637.7344,298.0469 637.7344,299.0781 L637.7344,300.1719 Q637.7344,301.4063 638.625,302.2344 Q639.5156,303.0469 641.1094,303.0469 Q642.0469,303.0469 642.7031,302.7969 Q643.0938,302.6406 643.5156,302.2031 Q643.7813,301.9375 643.9219,301.8594 Q644.0781,301.7813 644.2813,301.7813 Q644.6094,301.7813 644.8594,302.0469 Q645.125,302.2969 645.125,302.6406 Q645.125,302.9844 644.7813,303.3906 Q644.2813,303.9688 643.4844,304.2969 Q642.4063,304.75 641.1094,304.75 Q639.5938,304.75 638.3906,304.125 Q637.4063,303.625 636.7188,302.5625 Q636.0313,301.4844 636.0313,300.2031 L636.0313,299.0469 Q636.0313,297.7188 636.6406,296.5781 Q637.2656,295.4219 638.3594,294.8125 Q639.4531,294.1875 640.6875,294.1875 Q641.4219,294.1875 642.0625,294.3594 Q642.7188,294.5156 643.2656,294.875 Z " fill="#000000"/><text fill="#000000" font-family="sans-serif" font-size="14" lengthAdjust="spacing" textLength="163" x="654.5" y="304.7285">BreadthFirstSearchSolver</text></g><!--class Main--><g id="elem_Main"><rect codeLine="60" fill="#F1F1F1" height="32" id="Main" rx="2.5" ry="2.5" style="stroke:#181818;stroke-width:0.5;" width="62" x="731" y="7"/><ellipse cx="746" cy="23" fill="#ADD1B2" rx="11" ry="11" style="stroke:#181818;stroke-width:1.0;"/><path d="M748.7656,18.875 Q748.9219,18.6563 749.1094,18.5469 Q749.2969,18.4375 749.5156,18.4375 Q749.8906,18.4375 750.125,18.7031 Q750.3594,18.9531 750.3594,19.5625 L750.3594,21.0156 Q750.3594,21.625 750.125,21.8906 Q749.8906,22.1563 749.5156,22.1563 Q749.1719,22.1563 748.9688,21.9531 Q748.7656,21.7656 748.6563,21.25 Q748.6094,20.8906 748.4219,20.7031 Q748.0938,20.3281 747.4844,20.1094 Q746.875,19.8906 746.25,19.8906 Q745.4844,19.8906 744.8438,20.2188 Q744.2188,20.5469 743.7188,21.2969 Q743.2344,22.0469 743.2344,23.0781 L743.2344,24.1719 Q743.2344,25.4063 744.125,26.2344 Q745.0156,27.0469 746.6094,27.0469 Q747.5469,27.0469 748.2031,26.7969 Q748.5938,26.6406 749.0156,26.2031 Q749.2813,25.9375 749.4219,25.8594 Q749.5781,25.7813 749.7813,25.7813 Q750.1094,25.7813 750.3594,26.0469 Q750.625,26.2969 750.625,26.6406 Q750.625,26.9844 750.2813,27.3906 Q749.7813,27.9688 748.9844,28.2969 Q747.9063,28.75 746.6094,28.75 Q745.0938,28.75 743.8906,28.125 Q742.9063,27.625 742.2188,26.5625 Q741.5313,25.4844 741.5313,24.2031 L741.5313,23.0469 Q741.5313,21.7188 742.1406,20.5781 Q742.7656,19.4219 743.8594,18.8125 Q744.9531,18.1875 746.1875,18.1875 Q746.9219,18.1875 747.5625,18.3594 Q748.2188,18.5156 748.7656,18.875 Z " fill="#000000"/><text fill="#000000" font-family="sans-serif" font-size="14" lengthAdjust="spacing" textLength="30" x="760" y="28.7285">Main</text></g><!--class Configuration--><g id="elem_Configuration"><rect codeLine="61" fill="#F1F1F1" height="32" id="Configuration" rx="2.5" ry="2.5" style="stroke:#181818;stroke-width:0.5;" width="117" x="647.5" y="99"/><ellipse cx="662.5" cy="115" fill="#ADD1B2" rx="11" ry="11" style="stroke:#181818;stroke-width:1.0;"/><path d="M665.2656,110.875 Q665.4219,110.6563 665.6094,110.5469 Q665.7969,110.4375 666.0156,110.4375 Q666.3906,110.4375 666.625,110.7031 Q666.8594,110.9531 666.8594,111.5625 L666.8594,113.0156 Q666.8594,113.625 666.625,113.8906 Q666.3906,114.1563 666.0156,114.1563 Q665.6719,114.1563 665.4688,113.9531 Q665.2656,113.7656 665.1563,113.25 Q665.1094,112.8906 664.9219,112.7031 Q664.5938,112.3281 663.9844,112.1094 Q663.375,111.8906 662.75,111.8906 Q661.9844,111.8906 661.3438,112.2188 Q660.7188,112.5469 660.2188,113.2969 Q659.7344,114.0469 659.7344,115.0781 L659.7344,116.1719 Q659.7344,117.4063 660.625,118.2344 Q661.5156,119.0469 663.1094,119.0469 Q664.0469,119.0469 664.7031,118.7969 Q665.0938,118.6406 665.5156,118.2031 Q665.7813,117.9375 665.9219,117.8594 Q666.0781,117.7813 666.2813,117.7813 Q666.6094,117.7813 666.8594,118.0469 Q667.125,118.2969 667.125,118.6406 Q667.125,118.9844 666.7813,119.3906 Q666.2813,119.9688 665.4844,120.2969 Q664.4063,120.75 663.1094,120.75 Q661.5938,120.75 660.3906,120.125 Q659.4063,119.625 658.7188,118.5625 Q658.0313,117.4844 658.0313,116.2031 L658.0313,115.0469 Q658.0313,113.7188 658.6406,112.5781 Q659.2656,111.4219 660.3594,110.8125 Q661.4531,110.1875 662.6875,110.1875 Q663.4219,110.1875 664.0625,110.3594 Q664.7188,110.5156 665.2656,110.875 Z " fill="#000000"/><text fill="#000000" font-family="sans-serif" font-size="14" lengthAdjust="spacing" textLength="85" x="676.5" y="120.7285">Configuration</text></g><!--link Coordinate to CardinalDirection--><g id="link_Coordinate_CardinalDirection"><path codeLine="12" d="M713.03,639.26 C715.54,658.17 719.1711,685.4621 722.9911,714.2621 " fill="none" id="Coordinate-to-CardinalDirection" style="stroke:#181818;stroke-width:1.0;"/><polygon fill="#181818" points="723.78,720.21,726.5619,710.7622,723.1226,715.2534,718.6313,711.8141,723.78,720.21" style="stroke:#181818;stroke-width:1.0;"/></g><!--link MazeParser to MazeElement--><g id="link_MazeParser_MazeElement"><path codeLine="23" d="M87.89,515.45 C100.23,532.96 117.3132,557.1859 133.7932,580.5659 " fill="none" id="MazeParser-to-MazeElement" style="stroke:#181818;stroke-width:1.0;"/><polygon fill="#181818" points="137.25,585.47,135.3342,575.8093,134.3693,581.3832,128.7954,580.4183,137.25,585.47" style="stroke:#181818;stroke-width:1.0;"/></g><!--link StandardMaze to MazeElement--><g id="link_StandardMaze_MazeElement"><path codeLine="24" d="M259.07,515.45 C243.29,532.96 221.0378,557.6338 199.9578,581.0138 " fill="none" id="StandardMaze-to-MazeElement" style="stroke:#181818;stroke-width:1.0;"/><polygon fill="#181818" points="195.94,585.47,204.9375,581.4643,199.2882,581.7565,198.9959,576.1072,195.94,585.47" style="stroke:#181818;stroke-width:1.0;"/></g><!--reverse link MazeFactory to StandardMazeFactory--><g id="link_MazeFactory_StandardMazeFactory"><path d="M393.3558,227.3041 C381.0258,231.7241 385.5,231.45 375,239 C316.6,280.96 273.16,357.92 256.48,390.63 " fill="none" id="MazeFactory-backto-StandardMazeFactory" style="stroke:#181818;stroke-width:1.0;stroke-dasharray:7.0,7.0;"/><polygon fill="none" points="410.3,221.23,391.3311,221.656,395.3805,232.9521,410.3,221.23" style="stroke:#181818;stroke-width:1.0;"/></g><!--link StandardMazeFactory to MazeParser--><g id="link_StandardMazeFactory_MazeParser"><path codeLine="29" d="M220.21,423.06 C188.46,439.68 142.9858,463.4675 111.1958,480.1075 " fill="none" id="StandardMazeFactory-to-MazeParser" style="stroke:#181818;stroke-width:1.0;"/><polygon fill="#181818" points="105.88,482.89,115.7087,482.2602,110.3098,480.5713,111.9987,475.1724,105.88,482.89" style="stroke:#181818;stroke-width:1.0;"/></g><!--link StandardMazeFactory to StandardMaze--><g id="link_StandardMazeFactory_StandardMaze"><path codeLine="30" d="M253.07,423.27 C257.51,439.92 263.0227,460.6029 267.4427,477.1629 " fill="none" id="StandardMazeFactory-to-StandardMaze" style="stroke:#181818;stroke-width:1.0;stroke-dasharray:7.0,7.0;"/><polygon fill="#181818" points="268.99,482.96,270.5338,473.2329,267.7006,478.1291,262.8044,475.2959,268.99,482.96" style="stroke:#181818;stroke-width:1.0;"/></g><!--link StandardMaze to Maze--><g id="link_StandardMaze_Maze"><path codeLine="31" d="M279.21,515.45 C288.63,538.92 299.744,566.5758 309.134,589.9658 " fill="none" id="StandardMaze-to-Maze" style="stroke:#181818;stroke-width:1.0;stroke-dasharray:7.0,7.0;"/><polygon fill="none" points="315.84,606.67,314.7021,587.7305,303.566,592.2011,315.84,606.67" style="stroke:#181818;stroke-width:1.0;"/></g><!--link StandardMaze to Coordinate--><g id="link_StandardMaze_Coordinate"><path codeLine="32" d="M334.51,502.28 C398.69,506.25 501.44,517.14 585,547 C625.51,561.48 662.604,585.9921 686.424,603.3821 " fill="none" id="StandardMaze-to-Coordinate" style="stroke:#181818;stroke-width:1.0;stroke-dasharray:7.0,7.0;"/><polygon fill="#181818" points="691.27,606.92,686.3596,598.3826,687.2317,603.9718,681.6425,604.8439,691.27,606.92" style="stroke:#181818;stroke-width:1.0;"/></g><!--reverse link MazeFactory to GraphMazeFactory--><g id="link_MazeFactory_GraphMazeFactory"><path d="M468,241.27 C468,257.92 468,266.4 468,282.96 " fill="none" id="MazeFactory-backto-GraphMazeFactory" style="stroke:#181818;stroke-width:1.0;stroke-dasharray:7.0,7.0;"/><polygon fill="none" points="468,223.27,462,241.27,474,241.27,468,223.27" style="stroke:#181818;stroke-width:1.0;"/></g><!--link GraphMazeFactory to StandardMazeFactory--><g id="link_GraphMazeFactory_StandardMazeFactory"><path codeLine="38" d="M439.08,315.01 C424.03,322.59 405.21,331.7 388,339 C378.42,343.06 375.55,342.87 366,347 C334.68,360.54 305.1819,375.6423 281.7519,388.1623 " fill="none" id="GraphMazeFactory-to-StandardMazeFactory" style="stroke:#181818;stroke-width:1.0;"/><polygon fill="#181818" points="276.46,390.99,286.283,390.2763,280.8699,388.6335,282.5126,383.2205,276.46,390.99" style="stroke:#181818;stroke-width:1.0;"/></g><!--link GraphMazeFactory to GraphMaze--><g id="link_GraphMazeFactory_GraphMaze"><path codeLine="39" d="M467.71,315.19 C467.33,335.34 466.7832,364.7011 466.4032,384.8411 " fill="none" id="GraphMazeFactory-to-GraphMaze" style="stroke:#181818;stroke-width:1.0;stroke-dasharray:7.0,7.0;"/><polygon fill="#181818" points="466.29,390.84,470.4591,381.9171,466.3843,385.8409,462.4605,381.7661,466.29,390.84" style="stroke:#181818;stroke-width:1.0;"/></g><!--link GraphMazeFactory to StandardMaze--><g id="link_GraphMazeFactory_StandardMaze"><path codeLine="40" d="M436.64,315.15 C422.76,323.09 407.1,333.91 396,347 C364.59,384.03 383.5,410.05 352,447 C339.18,462.03 326.0851,471.3545 310.2951,480.0545 " fill="none" id="GraphMazeFactory-to-StandardMaze" style="stroke:#181818;stroke-width:1.0;"/><polygon fill="#181818" points="305.04,482.95,314.853,482.1102,309.4193,480.5371,310.9924,475.1034,305.04,482.95" style="stroke:#181818;stroke-width:1.0;"/></g><!--link GraphMaze to Maze--><g id="link_GraphMaze_Maze"><path codeLine="41" d="M455.87,423.05 C429.43,462.34 368.5886,552.7559 342.1586,592.0359 " fill="none" id="GraphMaze-to-Maze" style="stroke:#181818;stroke-width:1.0;stroke-dasharray:7.0,7.0;"/><polygon fill="none" points="332.11,606.97,347.1366,595.3855,337.1805,588.6864,332.11,606.97" style="stroke:#181818;stroke-width:1.0;"/></g><!--reverse link GraphMaze to StandardMaze--><g id="link_GraphMaze_StandardMaze"><path codeLine="42" d="M423.6792,428.2667 C408.4392,435.5367 400.71,439.19 384,447 C357.87,459.22 328.18,472.85 306.08,482.94 " fill="none" id="GraphMaze-backto-StandardMaze" style="stroke:#181818;stroke-width:1.0;"/><polygon fill="#181818" points="434.51,423.1,427.3724,422.0731,423.6792,428.2667,430.8168,429.2936,434.51,423.1" style="stroke:#181818;stroke-width:1.0;"/></g><!--reverse link MazeService to RightHandSolver--><g id="link_MazeService_RightHandSolver"><path d="M892.6733,214.4719 C926.5433,218.5119 951.94,224.14 988,239 C1014.12,249.76 1040.34,269.32 1056.84,282.95 " fill="none" id="MazeService-backto-RightHandSolver" style="stroke:#181818;stroke-width:1.0;stroke-dasharray:7.0,7.0;"/><polygon fill="none" points="874.8,212.34,891.9627,220.4297,893.3839,208.5142,874.8,212.34" style="stroke:#181818;stroke-width:1.0;"/></g><!--reverse link RightHandSolver to StandardMaze--><g id="link_RightHandSolver_StandardMaze"><path codeLine="49" d="M1031.0355,320.1108 C1014.9455,327.5408 1006,331.47 988,339 C864.58,390.65 836.9,414.94 707,447 C576.81,479.13 419.51,491.2 334.6,495.6 " fill="none" id="RightHandSolver-backto-StandardMaze" style="stroke:#181818;stroke-width:1.0;"/><polygon fill="#181818" points="1041.93,315.08,1034.8058,313.9639,1031.0355,320.1108,1038.1597,321.2269,1041.93,315.08" style="stroke:#181818;stroke-width:1.0;"/></g><!--reverse link MazeService to PathChecker--><g id="link_MazeService_PathChecker"><path d="M847.1854,235.6513 C864.7554,252.3013 879.64,266.4 897.12,282.96 " fill="none" id="MazeService-backto-PathChecker" style="stroke:#181818;stroke-width:1.0;stroke-dasharray:7.0,7.0;"/><polygon fill="none" points="834.12,223.27,843.0583,240.0064,851.3125,231.2961,834.12,223.27" style="stroke:#181818;stroke-width:1.0;"/></g><!--reverse link PathChecker to StandardMaze--><g id="link_PathChecker_StandardMaze"><path codeLine="51" d="M877.6413,321.0189 C863.3913,329.0989 855.39,332.72 838,339 C822.17,344.71 817.05,341.97 801,347 C690.74,381.58 671.89,414.51 561,447 C484.5,469.42 393.51,483.52 334.58,491.07 " fill="none" id="PathChecker-backto-StandardMaze" style="stroke:#181818;stroke-width:1.0;"/><polygon fill="#181818" points="888.08,315.1,880.8877,314.5799,877.6413,321.0189,884.8336,321.539,888.08,315.1" style="stroke:#181818;stroke-width:1.0;"/></g><!--reverse link MazeService to BreadthFirstSearchSolver--><g id="link_MazeService_BreadthFirstSearchSolver"><path d="M788.8146,235.6513 C771.2446,252.3013 756.36,266.4 738.88,282.96 " fill="none" id="MazeService-backto-BreadthFirstSearchSolver" style="stroke:#181818;stroke-width:1.0;stroke-dasharray:7.0,7.0;"/><polygon fill="none" points="801.88,223.27,784.6875,231.2961,792.9417,240.0064,801.88,223.27" style="stroke:#181818;stroke-width:1.0;"/></g><!--reverse link BreadthFirstSearchSolver to GraphMaze--><g id="link_BreadthFirstSearchSolver_GraphMaze"><path codeLine="53" d="M675.3568,319.6461 C626.4368,339.8261 551.28,370.83 502.42,390.98 " fill="none" id="BreadthFirstSearchSolver-backto-GraphMaze" style="stroke:#181818;stroke-width:1.0;"/><polygon fill="#181818" points="686.45,315.07,679.378,313.6603,675.3568,319.6461,682.4287,321.0558,686.45,315.07" style="stroke:#181818;stroke-width:1.0;"/></g><!--link RightHandSolver to util--><g id="link_RightHandSolver_util"><path codeLine="55" d="M1065.56,315.1 C1047.905,346.68 1005.545,422.4575 967.3363,490.8088 C948.2319,524.9844 930.1653,557.3034 916.7436,581.313 C913.3882,587.3154 910.323,592.7984 907.6046,597.6613 C906.2453,600.0927 904.9728,602.3691 903.7939,604.4778 C903.2045,605.5322 905.5663,601.3075 905.0246,602.2764 " fill="none" id="RightHandSolver-to-util" style="stroke:#181818;stroke-width:1.0;stroke-dasharray:7.0,7.0;"/><polygon fill="#181818" points="902.0968,607.5136,909.9799,601.6097,904.5366,603.1493,902.997,597.706,902.0968,607.5136" style="stroke:#181818;stroke-width:1.0;"/></g><!--link PathChecker to util--><g id="link_PathChecker_util"><path codeLine="56" d="M912.11,315.1 C910.245,346.68 905.7725,422.4575 901.7388,490.8088 C900.7303,507.8966 899.7493,524.5202 898.8433,539.8731 C898.3903,547.5496 898.3095,548.9188 897.9,555.859 " fill="none" id="PathChecker-to-util" style="stroke:#181818;stroke-width:1.0;stroke-dasharray:7.0,7.0;"/><polygon fill="#181818" points="897.5465,561.8486,902.0697,553.0999,897.8411,556.8573,894.0836,552.6286,897.5465,561.8486" style="stroke:#181818;stroke-width:1.0;"/></g><!--link BreadthFirstSearchSolver to util--><g id="link_BreadthFirstSearchSolver_util"><path codeLine="57" d="M734.73,315.27 C762.95,352.7 835.21,452.85 875,547 C876.6213,550.835 878.1284,554.8409 879.5254,558.9202 C879.8747,559.94 880.217,560.9644 880.5525,561.9918 C880.6364,562.2487 878.8768,556.7958 878.9598,557.0531 " fill="none" id="BreadthFirstSearchSolver-to-util" style="stroke:#181818;stroke-width:1.0;stroke-dasharray:7.0,7.0;"/><polygon fill="#181818" points="880.8029,562.763,881.8448,552.9694,879.267,558.0047,874.2316,555.4269,880.8029,562.763" style="stroke:#181818;stroke-width:1.0;"/></g><!--reverse link Main to Configuration--><g id="link_Main_Configuration"><path codeLine="62" d="M746.1604,49.4587 C735.8004,66.1087 725.66,82.4 715.36,98.96 " fill="none" id="Main-backto-Configuration" style="stroke:#181818;stroke-width:1.0;"/><polygon fill="#181818" points="752.5,39.27,745.934,42.2511,746.1604,49.4587,752.7264,46.4775,752.5,39.27" style="stroke:#181818;stroke-width:1.0;"/></g><!--link Main to MazeService--><g id="link_Main_MazeService"><path codeLine="63" d="M766.68,39.2 C777.25,73.55 801.0965,151.055 811.6065,185.235 " fill="none" id="Main-to-MazeService" style="stroke:#181818;stroke-width:1.0;stroke-dasharray:7.0,7.0;"/><polygon fill="#181818" points="813.37,190.97,814.5482,181.1919,811.9005,186.1908,806.9015,183.5431,813.37,190.97" style="stroke:#181818;stroke-width:1.0;"/></g><!--reverse link Configuration to MazeService--><g id="link_Configuration_MazeService"><path codeLine="64" d="M734.1019,138.5795 C754.7719,155.1995 778.49,174.25 799.19,190.89 " fill="none" id="Configuration-backto-MazeService" style="stroke:#181818;stroke-width:1.0;"/><polygon fill="#181818" points="724.75,131.06,726.9194,137.937,734.1019,138.5795,731.9324,131.7025,724.75,131.06" style="stroke:#181818;stroke-width:1.0;"/></g><!--reverse link Configuration to MazeFactory--><g id="link_Configuration_MazeFactory"><path codeLine="65" d="M644.6821,134.6598 C629.4621,139.4898 624.18,141.41 609,147 C571.77,160.71 529.94,178.53 501.58,190.98 " fill="none" id="Configuration-backto-MazeFactory" style="stroke:#181818;stroke-width:1.0;"/><polygon fill="#181818" points="656.12,131.03,649.1911,129.0323,644.6821,134.6598,651.611,136.6575,656.12,131.03" style="stroke:#181818;stroke-width:1.0;"/></g><!--SRC=[dLHDRuCm3BtpAtAU1B-WGkeOtGxTMfLEEsVWGbI-bAILket_Ff8M4aYWKZaWOhzdFpl66Ka0GL7p2ogW-0RA7AV6yH6dW4wSv6YnM55SWE-ZNmUrJvnZnj0Myqmx1bL54r9Y3j88vQb00PQc_8LGY3cfoYjVF1-RtVwjFuNBQDyVeisdvleARwv6lbKQvBg-cS5fbFW2_u0XNWfxRprX3WMKN4cAjiiWL7cNwxMMbvGSw0778BaMqmh7lA8NhIF2kiMK0PL6TPJADGdIpJWkaxOQBxfz2821bD2klevYrAWqwC5k2X4fwciq9ZlaZTNRsQfDbf2TJAtSAQZd-VVZjgW_7ysv_V70DSFUf1JNsKnZNeN_iQxqrDvk11Fzi1G_JH05FH3NH5ewftnFhclI6_sNQM_lJ69WHkU6mnvTOTgmxqYQyRSsT5JbvtR4jNQE2MEeLPNQCK46yN4-eWwRYVPC0ISyMn7AU0IOnjbziPCSaKVTcBKmSQbYWHeQ1ux933sglPzkev3IwTPjUI3fYMAvz8H3AhAOHHYzgW54akvxk_brd7y0]--></g></svg>